PathFileType	4	(X/Y/Z)	/Users/itak/Documents/Research/Walk-IL/dataset/trc/00293_00010.trc
DataRate	CameraRate	NumFrames	NumMarkers	Units	OrigDataRate	OrigDataStartFrame	OrigNumFrames
100.000000	100.000000	4	53	mm	100.000000	357	714
Frame#	Time	RPSI			LPSI			L3			STRN			T10			C7			CLAV			RBAK			LBAK			LSHO			LUPA			LAEL			LAOL			LWTS			LWPS			LFRA			LIFD			LHPS			LHTS			RSHO			RUPA			RAEL			RAOL			RWTS			RWPS			RFRA			RIFD			RHPS			RBHD			LFHD			RFHD			LBHD			LHIP			RHIP			RASI			LASI			LKNE			LTHI			LANK			LTIP			LTOE			LMT1			LMT5			LHEE			RKNE			RTHI			RANK			RTIP			RTOE			RMT1			RMT5			RHEE			RHTS			
		X1	Y1	Z1	X2	Y2	Z2	X3	Y3	Z3	X4	Y4	Z4	X5	Y5	Z5	X6	Y6	Z6	X7	Y7	Z7	X8	Y8	Z8	X9	Y9	Z9	X10	Y10	Z10	X11	Y11	Z11	X12	Y12	Z12	X13	Y13	Z13	X14	Y14	Z14	X15	Y15	Z15	X16	Y16	Z16	X17	Y17	Z17	X18	Y18	Z18	X19	Y19	Z19	X20	Y20	Z20	X21	Y21	Z21	X22	Y22	Z22	X23	Y23	Z23	X24	Y24	Z24	X25	Y25	Z25	X26	Y26	Z26	X27	Y27	Z27	X28	Y28	Z28	X29	Y29	Z29	X30	Y30	Z30	X31	Y31	Z31	X32	Y32	Z32	X33	Y33	Z33	X34	Y34	Z34	X35	Y35	Z35	X36	Y36	Z36	X37	Y37	Z37	X38	Y38	Z38	X39	Y39	Z39	X40	Y40	Z40	X41	Y41	Z41	X42	Y42	Z42	X43	Y43	Z43	X44	Y44	Z44	X45	Y45	Z45	X46	Y46	Z46	X47	Y47	Z47	X48	Y48	Z48	X49	Y49	Z49	X50	Y50	Z50	X51	Y51	Z51	X52	Y52	Z52	X53	Y53	Z53	

358	3.57	-400.3350524902344	949.7393798828125	-447.6207580566406	-459.6681823730469	962.5032348632812	-610.6310424804688	-420.7688293457031	1021.202026367188	-549.89208984375	-171.7687683105469	1191.691772460938	-601.5079345703125	-431.5067749023438	1135.811279296875	-557.59912109375	-383.963623046875	1380.77587890625	-575.142822265625	-227.828857421875	1295.55517578125	-589.1627807617188	-426.01025390625	1239.30322265625	-504.470947265625	-413.6737060546875	1347.409790039062	-677.36083984375	-329.8834838867188	1352.839721679688	-736.9253540039062	-363.126708984375	1240.663330078125	-814.1997680664062	-338.1006164550781	1065.884033203125	-862.3596801757812	-379.7746276855469	1008.125549316406	-809.4577026367188	-131.6277465820312	1027.325927734375	-887.9971923828125	-152.8034362792969	1001.970397949219	-952.1959838867188	-274.4240417480469	1025.736938476562	-902.9366455078125	32.97123336791992	971.4115600585938	-953.5396728515625	-71.94744873046875	974.8426513671875	-978.4051513671875	-42.13971710205078	1019.870483398438	-940.4599609375	-307.4337158203125	1356.148803710938	-425.0057067871094	-324.4403686523438	1309.129272460938	-361.2110900878906	-440.7376403808594	1076.654296875	-313.8251037597656	-437.0703125	1058.2314453125	-406.9821166992188	-396.9956970214844	834.0049438476562	-289.2983093261719	-469.7258605957031	853.3917236328125	-248.9608459472656	-447.8903503417969	1010.377807617188	-285.8465270996094	-448.6392822265625	656.7802734375	-265.4969787597656	-480.2839660644531	744.5067749023438	-227.4566497802734	-372.8923645019531	1534.419555664062	-521.00390625	-184.8744354248047	1583.12451171875	-607.262451171875	-201.6167449951172	1576.607055664062	-516.0451049804688	-344.9744873046875	1534.7578125	-664.4894409179688	-438.9933166503906	916.2683715820312	-727.1268920898438	-270.2883605957031	890.6002197265625	-393.5360107421875	-192.0709838867188	895.7276000976562	-506.4395446777344	-291.4509582519531	907.4359130859375	-740.4622802734375	-506.9678649902344	466.2986145019531	-698.1189575195312	-473.5157775878906	603.537353515625	-724.0618896484375	-766.9711303710938	101.2886276245117	-584.180908203125	-644.0365600585938	281.9590759277344	-649.5313110351562	-572.7232055664062	35.57384490966797	-614.6885986328125	-614.8692626953125	40.56540679931641	-546.9366455078125	-672.82373046875	49.07924270629883	-643.039794921875	-781.797607421875	120.2633972167969	-513.1119384765625	-128.4735412597656	461.4320983886719	-535.3359375	-181.3410491943359	703.477783203125	-445.0855712890625	-76.82246398925781	35.06752777099609	-640.1142578125	-88.49575805664062	350.0043029785156	-574.1544799804688	93.20756530761719	85.43511199951172	-718.3648071289062	37.25164794921875	62.78572845458984	-752.5366821289062	29.98675346374512	40.53953552246094	-635.9572143554688	-133.2960815429688	23.31964874267578	-680.900634765625	-415.0742797851562	722.6453857421875	-244.3705444335938	
359	3.58	-390.2676086425781	951.3458251953125	-451.6887817382812	-447.0819702148438	962.2737426757812	-615.821044921875	-408.6997680664062	1020.869934082031	-554.152587890625	-160.6168823242188	1192.59423828125	-602.4521484375	-420.6421508789062	1135.222778320312	-561.1702270507812	-374.3743286132812	1380.518798828125	-576.7986450195312	-217.3033905029297	1296.077392578125	-590.101806640625	-416.24560546875	1238.490356445312	-507.1841735839844	-402.9727478027344	1347.632202148438	-679.345703125	-318.7970275878906	1353.723510742188	-738.4407958984375	-351.900146484375	1241.427001953125	-815.8756713867188	-327.1001892089844	1066.4140625	-863.434814453125	-369.5707702636719	1008.9912109375	-810.7097778320312	-120.44384765625	1027.771240234375	-886.0745849609375	-140.4557495117188	1001.659790039062	-950.410400390625	-262.9341430664062	1025.898803710938	-903.0105590820312	45.49007415771484	972.2504272460938	-947.898193359375	-59.01456069946289	974.572021484375	-974.860595703125	-30.14207649230957	1020.396667480469	-936.9295043945312	-298.74267578125	1355.25244140625	-426.1286315917969	-315.7944641113281	1307.367309570312	-362.7283630371094	-431.1921997070312	1074.223266601562	-317.7702331542969	-427.2921752929688	1056.652465820312	-411.072509765625	-391.3329162597656	830.7570190429688	-295.9237976074219	-463.3659057617188	851.0733642578125	-254.9596252441406	-438.8710327148438	1007.942993164062	-290.5186157226562	-447.2001037597656	654.3154296875	-275.5674133300781	-476.3128967285156	741.7967529296875	-235.3075408935547	-364.3006591796875	1534.4208984375	-521.9677734375	-176.30712890625	1584.15234375	-607.5733032226562	-193.3081207275391	1577.556518554688	-516.4359741210938	-335.9304504394531	1534.953369140625	-665.36572265625	-424.6997680664062	915.120849609375	-731.5961303710938	-260.7744140625	892.9441528320312	-395.3680419921875	-180.9807586669922	897.0037841796875	-507.1803894042969	-277.0694274902344	906.7001953125	-742.46533203125	-493.0997314453125	465.1673278808594	-703.3640747070312	-458.9338684082031	602.321533203125	-728.7601928710938	-763.41552734375	107.5123748779297	-587.4735107421875	-635.667236328125	284.8493347167969	-654.0989990234375	-572.6707153320312	35.65343856811523	-614.9464111328125	-613.9635620117188	42.03467559814453	-547.6911010742188	-671.2465209960938	49.77352523803711	-644.710693359375	-777.4744262695312	128.9445343017578	-516.974365234375	-118.6755981445312	462.5733642578125	-537.6104736328125	-170.8093414306641	704.9118041992188	-446.8516845703125	-75.70377349853516	35.72507858276367	-640.7942504882812	-80.05448913574219	350.3829345703125	-577.109619140625	95.34846496582031	80.16785430908203	-720.8482055664062	38.67728042602539	58.38599014282227	-754.6375732421875	31.5344352722168	38.00041580200195	-637.8243408203125	-132.5094451904297	24.84722518920898	-681.251708984375	-411.7441101074219	718.9090576171875	-253.3477325439453	
360	3.59	-380.3987121582031	953.2271728515625	-455.8507080078125	-434.3619995117188	962.354248046875	-621.1381225585938	-396.6690979003906	1020.968383789062	-558.4686279296875	-149.412353515625	1193.933837890625	-603.113525390625	-409.8542785644531	1135.095092773438	-564.7625122070312	-364.8425598144531	1380.639770507812	-578.5230102539062	-206.8161315917969	1297.00146484375	-590.8768310546875	-406.4956665039062	1238.103759765625	-509.931396484375	-392.1553344726562	1348.249389648438	-681.3790893554688	-307.5577697753906	1355.017700195312	-739.90234375	-340.569091796875	1242.664916992188	-817.5422973632812	-316.1466369628906	1067.273193359375	-864.4249877929688	-359.5399780273438	1010.391723632812	-811.8060913085938	-109.4072723388672	1027.521240234375	-884.1260986328125	-128.48388671875	1000.707092285156	-948.5314331054688	-251.6010131835938	1026.071533203125	-902.9819946289062	57.2451171875	971.371826171875	-942.5748291015625	-46.76803970336914	973.2667236328125	-971.3512573242188	-18.46587562561035	1019.675842285156	-933.5109252929688	-290.1991882324219	1354.754638671875	-427.2611999511719	-307.3093566894531	1305.98095703125	-364.2437133789062	-421.3691711425781	1071.96484375	-321.6624450683594	-417.2159423828125	1055.243774414062	-415.1146240234375	-385.040283203125	827.8523559570312	-302.5695495605469	-456.2903747558594	848.9586791992188	-260.8742065429688	-429.3890380859375	1005.710205078125	-295.1104736328125	-444.7791137695312	652.2349853515625	-285.6690979003906	-471.4408569335938	739.3021850585938	-243.0710754394531	-355.73193359375	1534.7333984375	-522.8223876953125	-167.7236175537109	1585.4990234375	-607.6975708007812	-185.0082397460938	1578.756469726562	-516.64501953125	-326.85595703125	1535.545654296875	-666.1267700195312	-410.0400695800781	914.2935791015625	-736.1162109375	-251.598388671875	895.665283203125	-396.9856262207031	-169.92529296875	898.7880249023438	-507.4338989257812	-262.4033813476562	906.342529296875	-743.9576416015625	-478.3330993652344	464.105224609375	-709.0787963867188	-443.5855407714844	601.2254028320312	-733.6705932617188	-759.02880859375	114.2782287597656	-591.386962890625	-626.5035400390625	288.0991516113281	-659.2504272460938	-572.5892944335938	35.71056365966797	-615.2578125	-612.8261108398438	43.75870132446289	-548.5763549804688	-669.3922729492188	50.53779602050781	-646.63916015625	-772.0852661132812	138.2976531982422	-521.58544921875	-108.8743362426758	463.9910888671875	-539.70556640625	-160.5023498535156	706.65625	-448.2018127441406	-74.45380401611328	36.41236877441406	-641.3895874023438	-71.72054290771484	350.9969177246094	-579.9415893554688	97.19968414306641	75.59001922607422	-723.6592407226562	39.68521118164062	54.69503402709961	-756.822998046875	33.06348419189453	36.04804229736328	-639.805908203125	-131.6803283691406	26.2742805480957	-681.3705444335938	-407.4649963378906	715.5518798828125	-262.3207702636719	
361	3.6	-370.7012023925781	955.22607421875	-460.0226440429688	-421.6039428710938	962.7059936523438	-626.4429931640625	-384.8055114746094	1021.478393554688	-562.764404296875	-138.2014770507812	1195.668334960938	-603.48046875	-399.1834716796875	1135.409057617188	-568.3541259765625	-355.3760986328125	1381.111694335938	-580.3252563476562	-196.4128265380859	1298.292236328125	-591.4832763671875	-396.7776184082031	1238.115356445312	-512.7314453125	-381.2469482421875	1349.234985351562	-683.4736328125	-296.1717224121094	1356.683227539062	-741.2989501953125	-329.0924377441406	1244.366577148438	-819.2225952148438	-305.229736328125	1068.450439453125	-865.3449096679688	-349.671875	1012.321960449219	-812.7741088867188	-98.50980377197266	1026.560302734375	-882.1434326171875	-116.8808898925781	999.1324462890625	-946.5689086914062	-240.4217376708984	1026.255493164062	-902.8639526367188	68.28549957275391	968.7660522460938	-937.5682983398438	-35.18106079101562	970.9262084960938	-967.8834838867188	-7.091925621032715	1017.693725585938	-930.1858520507812	-281.8283386230469	1354.650634765625	-428.4161376953125	-299.0310363769531	1305.00439453125	-365.7762145996094	-411.3863220214844	1069.93896484375	-325.5439147949219	-406.882080078125	1054.047485351562	-419.1380310058594	-378.1269836425781	825.3295288085938	-309.1998596191406	-448.5169677734375	847.0719604492188	-266.706787109375	-419.5698547363281	1003.72705078125	-299.64990234375	-441.2332763671875	650.5471801757812	-295.6527709960938	-465.6080932617188	737.0560913085938	-250.6898040771484	-347.2052917480469	1535.312866210938	-523.5970458984375	-159.1298980712891	1587.110961914062	-607.6414794921875	-176.7332305908203	1580.150268554688	-516.67724609375	-317.7555236816406	1536.491821289062	-666.7955932617188	-395.1691589355469	913.828125	-740.5863037109375	-242.7151794433594	898.539794921875	-398.3985290527344	-158.9534606933594	900.972900390625	-507.2820129394531	-247.6201782226562	906.4075927734375	-744.9603881835938	-462.6874389648438	463.100830078125	-715.3115234375	-427.5679016113281	600.2659301757812	-738.8141479492188	-753.67138671875	121.5593643188477	-596.0432739257812	-616.419189453125	291.6140441894531	-665.0562744140625	-572.4314575195312	35.69927215576172	-615.6259155273438	-611.43994140625	45.78524398803711	-549.6446533203125	-667.2035522460938	51.42910766601562	-648.8427124023438	-765.5057373046875	148.2292938232422	-527.0660400390625	-99.24089050292969	465.4718627929688	-541.5673217773438	-150.4409790039062	708.559326171875	-449.2080688476562	-73.18936157226562	37.04655456542969	-641.8865356445312	-63.69005584716797	351.63232421875	-582.4918212890625	98.8590087890625	71.63926696777344	-726.396728515625	40.4246711730957	51.68539810180664	-758.8333740234375	34.45293807983398	34.58354568481445	-641.6463012695312	-130.8598175048828	27.53351974487305	-681.33935546875	-402.1630859375	712.6265258789062	-271.1514282226562	
